<?xml version="1.0" encoding="iso-8859-1"?>
<!-- Generator: Adobe Illustrator 19.0.0, SVG Export Plug-In . SVG Version: 6.00 Build 0)  -->
<svg version="1.1" id="Capa_1" xmlns="http://www.w3.org/2000/svg" xmlns:xlink="http://www.w3.org/1999/xlink" x="0px" y="0px"
	 viewBox="0 0 512 512" style="enable-background:new 0 0 512 512;" xml:space="preserve">
<g>
	<g>
		<path d="M407,0H105C47.103,0,0,47.103,0,105v302c0,57.897,47.103,105,105,105h302c57.897,0,105-47.103,105-105V105
			C512,47.103,464.897,0,407,0z M326,431H186v-30h55v-75h30v75h55V431z M421.752,296H90.248v-30h26.248l6.426-73.898
			c1.838-21.144,17.713-37.592,38.078-40.603V126c0-19.299,15.701-35,35-35h25V81h60v50h-60v-10h-25c-2.757,0-5,2.243-5,5v25
			h153.248c23.521,0,42.793,17.67,44.83,41.102L395.504,266h26.248V296z"/>
	</g>
</g>
<g>
</g>
<g>
</g>
<g>
</g>
<g>
</g>
<g>
</g>
<g>
</g>
<g>
</g>
<g>
</g>
<g>
</g>
<g>
</g>
<g>
</g>
<g>
</g>
<g>
</g>
<g>
</g>
<g>
</g>
</svg>
